<svg width="25" height="26" viewBox="0 0 25 26" fill="none" xmlns="http://www.w3.org/2000/svg">
<path d="M16.125 9.12524C16.125 8.46118 16.6719 7.87524 17.375 7.87524C18.0391 7.87524 18.625 8.46118 18.625 9.12524C18.625 9.82837 18.0391 10.3752 17.375 10.3752C16.6719 10.3752 16.125 9.82837 16.125 9.12524ZM16.125 17.2502C15.7344 17.2502 15.3828 17.2502 15.0312 17.1721L13.9375 18.2268C13.7812 18.4221 13.5469 18.5002 13.3125 18.5002H11.75V20.0627C11.75 20.6096 11.3203 21.0002 10.8125 21.0002H9.25V22.5627C9.25 23.1096 8.82031 23.5002 8.3125 23.5002H3.9375C3.39062 23.5002 3 23.1096 3 22.5627V18.1877C3 17.9534 3.07812 17.719 3.27344 17.5237L9.32812 11.469C9.25 11.1174 9.25 10.7659 9.25 10.3752C9.25 6.58618 12.2969 3.50024 16.125 3.50024C19.9141 3.50024 23 6.58618 23 10.3752C23 14.2034 19.9141 17.2502 16.125 17.2502ZM16.125 15.3752C18.8594 15.3752 21.125 13.1487 21.125 10.3752C21.125 7.64087 18.8594 5.37524 16.125 5.37524C13.3516 5.37524 11.125 7.64087 11.125 10.3752C11.125 10.6487 11.125 10.9221 11.1641 11.1956L11.3203 12.1331L4.83594 18.5784V21.6252H7.33594V19.1252H9.83594V16.6252H12.9219L14.3672 15.1799L15.3047 15.3362C15.5781 15.3752 15.8516 15.3752 16.125 15.3752Z" fill="#171717"/>
</svg>
